<?xml version="1.0" encoding="UTF-8" standalone="no"?>
<svg
   xmlns:dc="http://purl.org/dc/elements/1.1/"
   xmlns:cc="http://creativecommons.org/ns#"
   xmlns:rdf="http://www.w3.org/1999/02/22-rdf-syntax-ns#"
   xmlns:svg="http://www.w3.org/2000/svg"
   xmlns="http://www.w3.org/2000/svg"
   xml:space="preserve"
   width="51"
   viewBox="0 0 51 50.999999"
   version="1.1"
   id="Layer_1"
   height="51"
   enable-background="new 0 0 48 48"><metadata
     id="metadata896"><rdf:RDF><cc:Work
         rdf:about=""><dc:format>image/svg+xml</dc:format><dc:type
           rdf:resource="http://purl.org/dc/dcmitype/StillImage" /><dc:title></dc:title></cc:Work></rdf:RDF></metadata><defs
     id="defs894"><clipPath
       id="clipPath1614"
       clipPathUnits="userSpaceOnUse"><g
         id="use1616"><path
           d="m 45.36595,37.68605 h -13.805 c 0.595,3.301 2.573,5.572 4.401,7 h 2.404 c 0.553,0 1,0.447 1,1 0,0.553 -0.447,1 -1,1 h -24 c -0.553,0 -1,-0.447 -1,-1 0,-0.553 0.447,-1 1,-1 h 2.403 c 1.827,-1.428 3.807,-3.699 4.401,-7 H 7.3659499 c -2.2089998,0 -3.9999998,-1.791 -3.9999998,-4 V 10.686051 c 0,-2.2090002 1.791,-4.0000002 3.9999998,-4.0000002 H 45.36595 c 2.209,0 4,1.791 4,4.0000002 V 33.68605 c 0,2.209 -1.791,4 -4,4 z m -25.603,7 h 13.205 c -1.595,-1.682 -3.015,-3.976 -3.459,-7 h -6.287 c -0.444,3.024 -1.864,5.318 -3.459,7 z m 27.603,-33.999999 c 0,-1.1040002 -0.896,-2.0000002 -2,-2.0000002 H 7.3659499 c -1.1039998,0 -1.9999998,0.896 -1.9999998,2.0000002 v 18.999999 0 H 47.36595 Z m 0,20.999999 H 5.3659501 v 0 2 c 0,1.104 0.896,2 1.9999998,2 H 21.36595 v 0 h 10 v 0 h 14 c 1.104,0 2,-0.896 2,-2 z m -21,3 c -0.553,0 -1,-0.447 -1,-1 0,-0.553 0.447,-1 1,-1 0.553,0 1,0.447 1,1 0,0.553 -0.447,1 -1,1 z"
           id="path5327"
           style="clip-rule:evenodd;fill-rule:evenodd" /><rect
           style="fill:#ffffff;fill-opacity:1;stroke:none;stroke-width:0.80128837"
           id="rect5329"
           width="13.69673"
           height="24.657221"
           x="1"
           y="25.342777" /><path
           id="path5331"
           d="M 11.768342,49.980218 H 2.9912883 c -1.077139,0 -1.950456,-0.919917 -1.950456,-2.054532 V 28.407631 c 0,-1.134614 0.873317,-2.054531 1.950456,-2.054531 h 8.7770537 c 1.077139,0 1.950456,0.919917 1.950456,2.054531 v 19.518055 c 0,1.134615 -0.873317,2.054532 -1.950456,2.054532 z M 12.74357,28.407631 c 0,-0.56705 -0.436902,-1.027265 -0.975228,-1.027265 H 2.9912883 c -0.538326,0 -0.975228,0.460215 -0.975228,1.027265 v 2.054533 H 12.74357 Z m 0,3.081799 H 2.0160603 V 44.843888 H 12.74357 Z m 0,14.381724 H 2.0160603 v 2.054532 c 0,0.56705 0.436902,1.027266 0.975228,1.027266 h 8.7770537 c 0.538326,0 0.975228,-0.460216 0.975228,-1.027266 z m -5.3637551,2.568165 c -0.538326,0 -0.975228,-0.460216 -0.975228,-1.027266 0,-0.567051 0.436902,-1.027266 0.975228,-1.027266 0.538326,0 0.975228,0.460215 0.975228,1.027266 0,0.56705 -0.436902,1.027266 -0.975228,1.027266 z M 3.9665163,33.030329 h 0.975229 c 0.26965,0 0.4876136,0.230107 0.4876136,0.513633 v 1.027266 c 0,0.283525 -0.2179636,0.513633 -0.4876136,0.513633 h -0.975229 c -0.26965,0 -0.487614,-0.230108 -0.487614,-0.513633 v -1.027266 c 0,-0.283526 0.217964,-0.513633 0.487614,-0.513633 z m 0,3.595431 h 0.975229 c 0.26965,0 0.4876136,0.230107 0.4876136,0.513633 v 1.027266 c 0,0.284039 -0.2179636,0.513633 -0.4876136,0.513633 h -0.975229 c -0.26965,0 -0.487614,-0.229594 -0.487614,-0.513633 v -1.027266 c 0,-0.283526 0.217964,-0.513633 0.487614,-0.513633 z m 0,3.595431 h 0.975229 c 0.26965,0 0.4876136,0.229594 0.4876136,0.513633 v 1.027266 c 0,0.284039 -0.2179636,0.513633 -0.4876136,0.513633 h -0.975229 c -0.26965,0 -0.487614,-0.229594 -0.487614,-0.513633 v -1.027266 c 0,-0.284039 0.217964,-0.513633 0.487614,-0.513633 z m 2.9256846,-7.190862 h 0.975228 c 0.269651,0 0.487614,0.230107 0.487614,0.513633 v 1.027266 c 0,0.283525 -0.217963,0.513633 -0.487614,0.513633 h -0.975228 c -0.269651,0 -0.487614,-0.230108 -0.487614,-0.513633 v -1.027266 c 0,-0.283526 0.217963,-0.513633 0.487614,-0.513633 z m 0,3.595431 h 0.975228 c 0.269651,0 0.487614,0.230107 0.487614,0.513633 v 1.027266 c 0,0.284039 -0.217963,0.513633 -0.487614,0.513633 h -0.975228 c -0.269651,0 -0.487614,-0.229594 -0.487614,-0.513633 v -1.027266 c 0,-0.283526 0.217963,-0.513633 0.487614,-0.513633 z m 0,3.595431 h 0.975228 c 0.269651,0 0.487614,0.229594 0.487614,0.513633 v 1.027266 c 0,0.284039 -0.217963,0.513633 -0.487614,0.513633 h -0.975228 c -0.269651,0 -0.487614,-0.229594 -0.487614,-0.513633 v -1.027266 c 0,-0.284039 0.217963,-0.513633 0.487614,-0.513633 z m 2.925684,-7.190862 h 0.9752291 c 0.26965,0 0.487614,0.230107 0.487614,0.513633 v 1.027266 c 0,0.283525 -0.217964,0.513633 -0.487614,0.513633 H 9.8178849 c -0.26965,0 -0.487614,-0.230108 -0.487614,-0.513633 v -1.027266 c 0,-0.283526 0.217964,-0.513633 0.487614,-0.513633 z m 0,3.595431 h 0.9752291 c 0.26965,0 0.487614,0.230107 0.487614,0.513633 v 1.027266 c 0,0.284039 -0.217964,0.513633 -0.487614,0.513633 H 9.8178849 c -0.26965,0 -0.487614,-0.229594 -0.487614,-0.513633 v -1.027266 c 0,-0.283526 0.217964,-0.513633 0.487614,-0.513633 z m -3.900912,-8.218129 h 2.925684 c 0.269651,0 0.487614,0.230108 0.487614,0.513634 0,0.283525 -0.217963,0.513633 -0.487614,0.513633 h -2.925684 c -0.269651,0 -0.487614,-0.230108 -0.487614,-0.513633 0,-0.283526 0.217963,-0.513634 0.487614,-0.513634 z"
           style="clip-rule:evenodd;fill-rule:evenodd;stroke-width:0.50045449" /><rect
           style="fill:#ffffff;fill-opacity:1;stroke:none;stroke-width:0.96098286"
           id="rect5333"
           width="25.597698"
           height="18.976398"
           x="24.602949"
           y="3.2296524" /><path
           id="path5335"
           style="fill:#000000;stroke-width:0.31421122"
           d="m 49.169079,5.1814868 v -1.41395 c 0,-0.260481 -0.21115,-0.471317 -0.471317,-0.471317 h -8.955019 c -0.76919,0 -1.453856,0.370769 -1.884011,0.942634 -6.28e-4,0 -9.43e-4,0 -0.0013,0 -3.14e-4,0 -6.28e-4,0 -0.0013,0 -0.430155,-0.571865 -1.114821,-0.942634 -1.88401,-0.942634 h -8.95502 c -0.260166,0 -0.471316,0.210836 -0.471316,0.471317 v 1.41395 H 25.603152 V 21.206259 H 35.75186 c 0.515621,0.578148 1.269728,0.942633 2.105529,0.942633 0.835802,0 1.589595,-0.364485 2.104901,-0.942633 H 50.111712 V 5.1814868 Z M 27.488505,4.2388538 h 8.483703 c 0.779558,0 1.413951,0.634392 1.413951,1.41395 v 9.0071792 c 0,0.26048 0.21115,0.471316 0.471316,0.471316 0.260167,0 0.471317,-0.210836 0.471317,-0.471316 V 5.6528038 c 0,-0.779558 0.634393,-1.41395 1.413951,-1.41395 h 8.483702 V 19.320991 h -8.483702 c -0.768875,0 -1.453856,0.37077 -1.884011,0.942634 -3.14e-4,0 -9.43e-4,0 -0.0013,0 -3.14e-4,0 -9.42e-4,0 -0.0013,0 -0.430155,-0.571864 -1.115135,-0.942634 -1.88401,-0.942634 h -8.483703 z" /></g></clipPath><clipPath
       id="clipPath990"
       clipPathUnits="userSpaceOnUse"><path
         id="path992"
         d="M -51.050781,-38.083984 V 87.40625 H 111.45703 V -38.083984 Z M 24.603516,2.1152344 H 50.201172 V 21.091797 H 24.603516 Z M 1,24.228516 h 13.697266 v 24.65625 H 1 Z"
         style="fill:#000000;fill-opacity:1;stroke:none" /></clipPath></defs><path
     id="path4644"
     d="M 22.1875,35.8125 18,44.1875 34.4375,44.4375 30.0625,35.75 22.5,35.875 Z"
     style="fill:#ffffff;fill-rule:evenodd;stroke:none;stroke-width:1px;stroke-linecap:butt;stroke-linejoin:miter;stroke-opacity:1" /><path
     id="path4640"
     d="M 24.395184,6.4522729 6.5407377,6.6290496 4.2426407,9.2807 4.331029,24.129942 2.9168155,24.748661 2.7400388,46.227029 3.8890873,46.889942 H 13.302446 L 14.451495,45.166369 14.584077,35.399457 46.536465,35.178486 48.481009,33.10136 48.569397,6.0545253 47.729708,6.0103311 47.86229,4.0657875 38.316349,4.1541758 36.63697,5.214836 35.178562,4.1099817 26.118757,3.9773991 25.500038,5.0822535 25.41165,6.496467 Z"
     style="fill:#ffffff;fill-rule:evenodd;stroke:none;stroke-width:1px;stroke-linecap:butt;stroke-linejoin:miter;stroke-opacity:1" /><path
     mask="none"
     clip-path="url(#clipPath990)"
     d="m 45.365949,36.571225 h -13.805 c 0.595,3.301 2.573,5.572 4.401,7 h 2.404 c 0.553,0 1,0.447 1,1 0,0.553 -0.447,1 -1,1 h -24 c -0.553,0 -1,-0.447 -1,-1 0,-0.553 0.447,-1 1,-1 h 2.403 c 1.827,-1.428 3.807,-3.699 4.401,-7 H 7.3659489 c -2.2089998,0 -3.9999998,-1.791 -3.9999998,-4 V 9.5712258 c 0,-2.2090002 1.791,-4.0000002 3.9999998,-4.0000002 H 45.365949 c 2.209,0 4,1.791 4,4.0000002 V 32.571225 c 0,2.209 -1.791,4 -4,4 z m -25.603,7 h 13.205 c -1.595,-1.682 -3.015,-3.976 -3.459,-7 h -6.287 c -0.444,3.024 -1.864,5.318 -3.459,7 z m 27.603,-33.9999992 c 0,-1.1040002 -0.896,-2.0000002 -2,-2.0000002 H 25.03125 7.3659489 c -1.1039998,0 -1.9999998,0.896 -1.9999998,2.0000002 v 18.9999992 0 H 47.365949 Z m 0,20.9999992 H 5.3659491 v 0 2 c 0,1.104 0.896,2 1.9999998,2 H 21.365949 v 0 h 10 v 0 h 14 c 1.104,0 2,-0.896 2,-2 z m -21,3 c -0.553,0 -1,-0.447 -1,-1 0,-0.553 0.447,-1 1,-1 0.553,0 1,0.447 1,1 0,0.553 -0.447,1 -1,1 z"
     id="path889"
     style="clip-rule:evenodd;fill-rule:evenodd" /><path
     id="path1522"
     d="M 12.893341,47.302893 H 4.1162873 c -1.077139,0 -1.950456,-0.919917 -1.950456,-2.054532 V 25.730306 c 0,-1.134614 0.873317,-2.054531 1.950456,-2.054531 h 8.7770537 c 1.077139,0 1.950456,0.919917 1.950456,2.054531 v 19.518055 c 0,1.134615 -0.873317,2.054532 -1.950456,2.054532 z m 0.975228,-21.572587 c 0,-0.56705 -0.436902,-1.027265 -0.975228,-1.027265 H 4.1162873 c -0.538326,0 -0.975228,0.460215 -0.975228,1.027265 v 2.054533 H 13.868569 Z m 0,3.081799 H 3.1410593 V 42.166563 H 13.868569 Z m 0,14.381724 H 3.1410593 v 2.054532 c 0,0.56705 0.436902,1.027266 0.975228,1.027266 h 8.7770537 c 0.538326,0 0.975228,-0.460216 0.975228,-1.027266 z m -5.3637551,2.568165 c -0.538326,0 -0.975228,-0.460216 -0.975228,-1.027266 0,-0.567051 0.436902,-1.027266 0.975228,-1.027266 0.538326,0 0.975228,0.460215 0.975228,1.027266 0,0.56705 -0.436902,1.027266 -0.975228,1.027266 z M 7.0419719,25.730306 h 2.925684 c 0.2696511,0 0.4876141,0.230108 0.4876141,0.513634 0,0.283525 -0.217963,0.513633 -0.4876141,0.513633 h -2.925684 c -0.269651,0 -0.487614,-0.230108 -0.487614,-0.513633 0,-0.283526 0.217963,-0.513634 0.487614,-0.513634 z"
     style="clip-rule:evenodd;fill-rule:evenodd;stroke-width:0.50045449" /><path
     id="path1580"
     style="fill:#000000;stroke-width:0.32254454"
     d="m 48.390929,5.5699968 v -1.45145 c 0,-0.2673893 -0.21675,-0.483817 -0.483817,-0.483817 h -9.192519 c -0.78959,0 -1.492414,0.3806023 -1.933977,0.967634 -6.45e-4,0 -9.68e-4,0 -0.0013,0 -3.22e-4,0 -6.45e-4,0 -0.0013,0 -0.441564,-0.5870317 -1.144388,-0.967634 -1.933977,-0.967634 h -9.19252 c -0.267066,0 -0.483816,0.2164278 -0.483816,0.483817 v 1.45145 H 24.2 V 22.019769 h 10.417866 c 0.529296,0.593481 1.303403,0.967633 2.161371,0.967633 0.857969,0 1.631753,-0.374152 2.160726,-0.967633 H 49.358562 V 5.5699968 Z M 26.135355,4.6023638 h 8.708703 c 0.800233,0 1.451451,0.651217 1.451451,1.45145 v 9.2460622 c 0,0.267389 0.21675,0.483816 0.483816,0.483816 0.267067,0 0.483817,-0.216427 0.483817,-0.483816 V 6.0538138 c 0,-0.8002329 0.651218,-1.45145 1.451451,-1.45145 h 8.708702 V 20.084501 h -8.708702 c -0.789266,0 -1.492414,0.380603 -1.933977,0.967634 -3.23e-4,0 -9.68e-4,0 -0.0013,0 -3.22e-4,0 -9.67e-4,0 -0.0013,0 -0.441564,-0.587031 -1.14471,-0.967634 -1.933977,-0.967634 h -8.708703 z" /></svg>